# xmcd CD database file
#
# Track frame offsets:
#	183
#	19545
#	42100
#	56148
#	73840
#	88945
#	106600
#	128903
#	140473
#	152315
#
# Disc length: 2342 seconds
#
# Revision: 0
# Processed by: cddbd v1.5.1PL2 Copyright (c) Steve Scherf et al.
# Submitted via: CDex 1.51
#
DISCID=7d09240a
DTITLE=Erik Lindström - Espoo Big Band Plays Erik Lindström
DYEAR=1987
DGENRE=Jazz
TTITLE0=Introduction Blues
TTITLE1=Ballad
TTITLE2=Brush Business
TTITLE3=Count Me Too
TTITLE4=High Heels
TTITLE5=The Marshal
TTITLE6=Eiku
TTITLE7=No Money -- No Music
TTITLE8=Bass Ace
TTITLE9=Fresco
EXTD=YEAR: 1987
EXTT0=
EXTT1=
EXTT2=
EXTT3=
EXTT4=
EXTT5=
EXTT6=
EXTT7=
EXTT8=
EXTT9=
PLAYORDER=
